<svg width="44" height="44" viewBox="0 0 44 44" fill="none" xmlns="http://www.w3.org/2000/svg">
<g clip-path="url(#clip0_87_10255)">
<path d="M5.02405 34.497L6.78809 37.4809C7.15464 38.1091 7.68156 38.6027 8.30011 38.9617L14.6002 28.2822H2C2 28.9777 2.18328 29.6733 2.54983 30.3015L5.02405 34.497Z" fill="#0066DA"/>
<path d="M22 15.7181L15.6999 5.03857C15.0813 5.39755 14.5544 5.89114 14.1879 6.51934L2.54983 26.2629C2.19002 26.8776 2.00048 27.5737 2 28.2822H14.6002L22 15.7181Z" fill="#00AC47"/>
<path d="M35.6999 38.9617C36.3185 38.6027 36.8454 38.1091 37.2119 37.4809L37.945 36.247L41.4502 30.3015C41.8167 29.6733 42 28.9777 42 28.2822H29.3989L32.0802 33.4425L35.6999 38.9617Z" fill="#EA4335"/>
<path d="M22 15.7179L28.3001 5.03846C27.6816 4.67949 26.9714 4.5 26.2383 4.5H17.7617C17.0286 4.5 16.3184 4.70192 15.6999 5.03846L22 15.7179Z" fill="#00832D"/>
<path d="M29.3998 28.2822H14.6002L8.30011 38.9617C8.91867 39.3207 9.62886 39.5002 10.362 39.5002H33.638C34.3711 39.5002 35.0813 39.2983 35.6999 38.9617L29.3998 28.2822Z" fill="#2684FC"/>
<path d="M35.6312 16.3911L29.8121 6.51934C29.4456 5.89114 28.9187 5.39755 28.3001 5.03857L22 15.7181L29.3998 28.2822H41.9771C41.9771 27.5867 41.7938 26.8911 41.4273 26.2629L35.6312 16.3911Z" fill="#FFBA00"/>
</g>
<defs>
<clipPath id="clip0_87_10255">
<rect width="40" height="35" fill="white" transform="translate(2 4.5)"/>
</clipPath>
</defs>
</svg>
