<svg width="44" height="44" viewBox="0 0 44 44" fill="none" xmlns="http://www.w3.org/2000/svg">
<g clip-path="url(#clip0_157_5542)">
<path d="M10.5669 27.1968C10.5669 29.4961 8.70865 31.3543 6.40943 31.3543C4.11022 31.3543 2.25195 29.4961 2.25195 27.1968C2.25195 24.8976 4.11022 23.0394 6.40943 23.0394H10.5669V27.1968ZM12.6457 27.1968C12.6457 24.8976 14.5039 23.0394 16.8031 23.0394C19.1023 23.0394 20.9606 24.8976 20.9606 27.1968V37.5905C20.9606 39.8898 19.1023 41.748 16.8031 41.748C14.5039 41.748 12.6457 39.8898 12.6457 37.5905V27.1968Z" fill="#E01E5A"/>
<path d="M16.8031 10.5039C14.5039 10.5039 12.6457 8.64567 12.6457 6.34646C12.6457 4.04725 14.5039 2.18898 16.8031 2.18898C19.1023 2.18898 20.9606 4.04725 20.9606 6.34646V10.5039H16.8031ZM16.8031 12.6142C19.1023 12.6142 20.9606 14.4724 20.9606 16.7717C20.9606 19.0709 19.1023 20.9291 16.8031 20.9291H6.37794C4.07873 20.9291 2.22046 19.0709 2.22046 16.7717C2.22046 14.4724 4.07873 12.6142 6.37794 12.6142H16.8031Z" fill="#36C5F0"/>
<path d="M33.4646 16.7717C33.4646 14.4724 35.3229 12.6142 37.6221 12.6142C39.9213 12.6142 41.7796 14.4724 41.7796 16.7717C41.7796 19.0709 39.9213 20.9291 37.6221 20.9291H33.4646V16.7717ZM31.3859 16.7717C31.3859 19.0709 29.5276 20.9291 27.2284 20.9291C24.9292 20.9291 23.0709 19.0709 23.0709 16.7717V6.34646C23.0709 4.04725 24.9292 2.18898 27.2284 2.18898C29.5276 2.18898 31.3859 4.04725 31.3859 6.34646V16.7717Z" fill="#2EB67D"/>
<path d="M27.2284 33.4331C29.5276 33.4331 31.3859 35.2913 31.3859 37.5905C31.3859 39.8898 29.5276 41.748 27.2284 41.748C24.9292 41.748 23.0709 39.8898 23.0709 37.5905V33.4331H27.2284ZM27.2284 31.3543C24.9292 31.3543 23.0709 29.4961 23.0709 27.1968C23.0709 24.8976 24.9292 23.0394 27.2284 23.0394H37.6536C39.9528 23.0394 41.8111 24.8976 41.8111 27.1968C41.8111 29.4961 39.9528 31.3543 37.6536 31.3543H27.2284Z" fill="#ECB22E"/>
</g>
<defs>
<clipPath id="clip0_157_5542">
<rect width="40" height="40" fill="white" transform="translate(2 2)"/>
</clipPath>
</defs>
</svg>
