<svg width="87" height="101" viewBox="0 0 87 101" fill="none" xmlns="http://www.w3.org/2000/svg">
<path fill-rule="evenodd" clip-rule="evenodd" d="M40.9771 0.370353L0.564681 26.175C0.564681 26.175 0.329027 26.3292 0.16896 26.5695C0.00889342 26.8098 0 27.1272 0 27.1272V76.5148C0 76.5148 0.0225644 76.8413 0.147006 77.0544C0.271447 77.2675 0.507156 77.4307 0.507156 77.4307L45.1124 100.823C45.1124 100.823 45.4503 101.014 45.7616 101C46.0728 100.986 46.3574 100.796 46.3574 100.796L86.5297 74.6331C86.5297 74.6331 86.7787 74.4562 86.9032 74.157C87.0277 73.8577 86.9965 73.572 86.9965 73.572V23.7991C86.9965 23.7991 87.0321 23.391 86.8054 23.0282C86.5786 22.6655 86.2273 22.5476 86.2273 22.5476L42.8452 0.370353C42.8452 0.370353 42.2791 0.00576947 41.8656 0.000751862C41.452 -0.00426574 40.9771 0.370353 40.9771 0.370353ZM29.0791 15.6419L10.787 22.3889L36.8177 5.75689L29.0791 15.6419ZM14.4641 34.3141L3.72628 27.4628L26.3668 19.1106L14.4641 34.3141ZM40.7328 11.3434V4.47389L33.183 14.1274L40.7328 11.3434ZM43.0138 11.2481V4.15649L51.2883 13.4155L43.0138 11.2481ZM55.3141 14.4654L46.8553 5.00345L75.8586 19.8406L55.3141 14.4654ZM8.82173 49.8667L3.06824 29.7854L13.3504 36.3408L8.82173 49.8667ZM2.27234 69.4549V35.2935L7.55009 53.6846L2.27234 69.4549ZM12.0008 69.2146L3.14381 74.0527L8.65722 57.5478L12.0008 69.2146ZM13.1791 71.1961L4.41545 75.9888L22.5519 79.9019L13.1791 71.1961ZM25.8866 82.9898L9.19967 79.3941L38.603 94.8062L25.8866 82.9898ZM83.514 24.2365L58.1178 17.5916L72.7728 33.9786L83.514 24.2365ZM44.57 87.0162L30.2796 83.9329L44.57 97.2044V87.0162ZM57.6714 83.5992L46.842 86.9392L46.8509 96.6652L57.6714 83.5992ZM78.3085 77.2312L51.4262 94.7291L61.6793 82.355L78.3085 77.2312ZM82.7282 73.4404L64.3827 79.0994L73.0623 68.62L82.7282 73.4404ZM86.4185 72.0543V25.3634L78.2818 50.1705L86.4185 72.0543ZM9.93331 53.7345L15.5158 37.031L44.8679 84.7037L26.9448 80.8405L14.3529 69.1556L9.93331 53.7345ZM54.0963 16.5443L71.6368 35.7605H16.2382L30.4663 17.5871L41.9333 13.3656L54.0963 16.5443ZM85.8761 25.1911L77.9661 49.3181L73.2441 36.613C73.2441 36.613 73.2516 36.6357 73.4131 36.4996C73.5747 36.3635 85.8761 25.1911 85.8761 25.1911ZM77.9928 51.0321L85.9561 72.4521C85.9561 72.4521 73.3153 66.163 73.2441 66.1267C73.173 66.0904 73.0663 66.0678 73.0663 66.0678L77.9928 51.0321ZM71.9081 66.4253C71.6925 66.7129 60.381 80.3372 60.381 80.3372L46.4596 84.6312L72.8084 37.08L77.6818 50.1705L72.4646 66.0678C72.4646 66.0678 72.1237 66.1376 71.9081 66.4253ZM45.6593 84.8942L72.4434 36.5561C72.4434 36.5561 72.5 36.613 72.2762 36.4441C72.0524 36.2753 72.1715 36.3364 72.1715 36.3364H15.758L45.6593 84.8942Z" fill="url(#paint0_linear_232_5274)"/>
<defs>
<linearGradient id="paint0_linear_232_5274" x1="88.875" y1="42.926" x2="-1.5291" y2="54.3429" gradientUnits="userSpaceOnUse">
<stop stop-color="#37819E"/>
<stop offset="1" stop-color="#29A383"/>
</linearGradient>
</defs>
</svg>
