<svg width="111" height="56" viewBox="0 0 111 56" fill="none" xmlns="http://www.w3.org/2000/svg">
<path fill-rule="evenodd" clip-rule="evenodd" d="M53.8463 0.108886L42.1114 7.69622C42.1114 7.69622 42.043 7.74155 41.9965 7.81222C41.95 7.88288 41.9474 7.9762 41.9474 7.9762V22.4976C41.9474 22.4976 41.954 22.5936 41.9901 22.6562C42.0262 22.7189 42.0947 22.7669 42.0947 22.7669L55.0472 29.645C55.0472 29.645 55.1453 29.701 55.2357 29.697C55.3261 29.693 55.4087 29.637 55.4087 29.637L67.074 21.9443C67.074 21.9443 67.1463 21.8923 67.1824 21.8044C67.2186 21.7164 67.2095 21.6324 67.2095 21.6324V6.99762C67.2095 6.99762 67.2199 6.87763 67.154 6.77097C67.0882 6.66432 66.9862 6.62965 66.9862 6.62965L54.3888 0.108886C54.3888 0.108886 54.2244 0.00168838 54.1044 0.000213053C53.9843 -0.00126227 53.8463 0.108886 53.8463 0.108886ZM50.3914 4.59916L45.0798 6.58299L52.6386 1.69269L50.3914 4.59916ZM46.1475 10.0893L43.0294 8.07485L49.6038 5.61907L46.1475 10.0893ZM53.7754 3.33527V1.31545L51.5831 4.15386L53.7754 3.33527ZM54.4377 3.30727V1.22213L56.8405 3.94455L54.4377 3.30727ZM58.0095 4.25325L55.5533 1.47116L63.9753 5.83372L58.0095 4.25325ZM44.5091 14.6623L42.8383 8.7578L45.8241 10.6853L44.5091 14.6623ZM42.6073 20.4218V10.3773L44.1398 15.7849L42.6073 20.4218ZM45.4322 20.3512L42.8603 21.7736L44.4612 16.9207L45.4322 20.3512ZM45.7743 20.9337L43.2296 22.343L48.496 23.4935L45.7743 20.9337ZM49.4644 24.4014L44.6188 23.3442L53.157 27.8758L49.4644 24.4014ZM66.1983 7.12623L58.8237 5.17244L63.0793 9.99065L66.1983 7.12623ZM54.8897 25.5853L50.74 24.6788L54.8897 28.581V25.5853ZM58.6941 24.5806L55.5494 25.5626L55.552 28.4224L58.6941 24.5806ZM64.6867 22.7083L56.8806 27.8531L59.8579 24.2148L64.6867 22.7083ZM65.9701 21.5936L60.6429 23.2576L63.1633 20.1763L65.9701 21.5936ZM67.0417 21.1861V7.45757L64.6789 14.7516L67.0417 21.1861ZM44.8319 15.7995L46.4529 10.8882L54.9762 24.9054L49.7716 23.7694L46.1152 20.3338L44.8319 15.7995ZM57.6559 4.86451L62.7494 10.5147H46.6627L50.7942 5.17111L54.1241 3.92989L57.6559 4.86451ZM66.8841 7.40691L64.5873 14.5009L63.2161 10.7653C63.2161 10.7653 63.2183 10.7719 63.2652 10.732C63.3121 10.6919 66.8841 7.40691 66.8841 7.40691ZM64.5951 15.0049L66.9074 21.303C66.9074 21.303 63.2367 19.4539 63.2161 19.4432C63.1955 19.4325 63.1645 19.4259 63.1645 19.4259L64.5951 15.0049ZM62.8282 19.531C62.7656 19.6155 59.4809 23.6215 59.4809 23.6215L55.4384 24.884L63.0895 10.9026L64.5047 14.7516L62.9898 19.4259C62.9898 19.4259 62.8907 19.4464 62.8282 19.531ZM55.206 24.9614L62.9836 10.7486C62.9836 10.7486 63 10.7653 62.935 10.7156C62.8701 10.666 62.9046 10.6839 62.9046 10.6839H46.5232L55.206 24.9614Z" fill="url(#paint0_linear_232_5273)"/>
<path d="M7.34423 55.3959C6.06872 55.3959 4.90999 55.0881 3.86802 54.4727C2.82606 53.8392 1.99967 52.9885 1.38887 51.9205C0.778063 50.8525 0.472656 49.6578 0.472656 48.3365C0.472656 47.0151 0.778063 45.8295 1.38887 44.7796C1.99967 43.7116 2.82606 42.861 3.86802 42.2274C4.90999 41.5938 6.06872 41.2771 7.34423 41.2771C8.33232 41.2771 9.28449 41.4671 10.2007 41.8473C11.1169 42.2093 11.9253 42.7342 12.626 43.4221L11.3594 44.8882C10.8205 44.309 10.2007 43.8746 9.50007 43.585C8.81737 43.2772 8.10773 43.1234 7.37118 43.1234C6.45497 43.1234 5.6196 43.3587 4.86508 43.8293C4.12851 44.2818 3.53567 44.9063 3.08655 45.7028C2.65539 46.4811 2.43981 47.359 2.43981 48.3365C2.43981 49.3139 2.65539 50.2009 3.08655 50.9973C3.53567 51.7938 4.1375 52.4273 4.89202 52.8979C5.64655 53.3504 6.48192 53.5767 7.39813 53.5767C8.13468 53.5767 8.82638 53.4319 9.47312 53.1423C10.1378 52.8527 10.7576 52.4273 11.3325 51.8662L12.5721 53.2238C11.8534 53.9116 11.045 54.4456 10.1468 54.8257C9.24853 55.2058 8.31438 55.3959 7.34423 55.3959ZM20.0821 55.423C19.0581 55.423 18.1509 55.2058 17.3604 54.7714C16.57 54.3189 15.9502 53.7034 15.5011 52.9251C15.0699 52.1286 14.8543 51.2055 14.8543 50.1556V41.5486H16.8215V49.7484C16.8215 50.9611 17.1628 51.9205 17.8455 52.6264C18.5282 53.3143 19.4444 53.6582 20.5941 53.6582C21.4026 53.6582 22.1211 53.4772 22.7499 53.1151C23.3967 52.735 23.9177 52.2101 24.3129 51.5404V41.5486H26.307V55.1515H24.3129V53.5767C23.2529 54.8076 21.8427 55.423 20.0821 55.423ZM29.6977 55.1515V41.5486H31.6918V43.0419C32.7158 41.8653 34.0362 41.2771 35.6531 41.2771C36.6052 41.2771 37.4495 41.5034 38.1861 41.9559C38.9227 42.3903 39.4975 42.9876 39.9108 43.7479C40.4676 42.9153 41.1324 42.2998 41.9049 41.9016C42.6773 41.4852 43.5577 41.2771 44.5457 41.2771C45.5337 41.2771 46.3961 41.5034 47.1327 41.9559C47.8692 42.3903 48.4441 43.0057 48.8573 43.8022C49.2885 44.5805 49.504 45.4946 49.504 46.5445V55.1515H47.5369V46.9518C47.5369 45.739 47.2225 44.7887 46.5937 44.1008C45.9649 43.3949 45.1116 43.0419 44.0337 43.0419C43.2971 43.0419 42.6234 43.232 42.0127 43.6121C41.4019 43.9742 40.8809 44.5262 40.4497 45.2684C40.4857 45.4675 40.5126 45.6756 40.5306 45.8928C40.5665 46.092 40.5844 46.3092 40.5844 46.5445V55.1515H38.6173V46.9518C38.6173 45.739 38.3029 44.7887 37.6741 44.1008C37.0453 43.3949 36.201 43.0419 35.1411 43.0419C34.4225 43.0419 33.7668 43.2139 33.1739 43.5578C32.599 43.8836 32.105 44.3724 31.6918 45.024V55.1515H29.6977ZM57.898 55.423C56.874 55.423 55.9667 55.2058 55.1763 54.7714C54.3858 54.3189 53.766 53.7034 53.3169 52.9251C52.8857 52.1286 52.6702 51.2055 52.6702 50.1556V41.5486H54.6373V49.7484C54.6373 50.9611 54.9786 51.9205 55.6613 52.6264C56.3439 53.3143 57.2602 53.6582 58.41 53.6582C59.2184 53.6582 59.937 53.4772 60.5658 53.1151C61.2125 52.735 61.7334 52.2101 62.1287 51.5404V41.5486H64.1228V55.1515H62.1287V53.5767C61.0687 54.8076 59.6585 55.423 57.898 55.423ZM67.5135 55.1515V36.1455L69.5076 35.6839V55.1515H67.5135ZM79.2409 55.3959C77.9474 55.3959 76.7707 55.0881 75.7108 54.4727C74.6688 53.8392 73.8335 52.9885 73.2047 51.9205C72.5939 50.8525 72.2884 49.6578 72.2884 48.3365C72.2884 47.0332 72.5849 45.8566 73.1777 44.8068C73.7706 43.7388 74.57 42.8971 75.576 42.2817C76.5821 41.6481 77.7049 41.3314 78.9444 41.3314C80.1481 41.3314 81.226 41.6481 82.1781 42.2817C83.1482 42.8971 83.912 43.7388 84.4687 44.8068C85.0438 45.8566 85.331 47.0332 85.331 48.3365V48.961H74.2556C74.3634 49.8479 74.6419 50.6444 75.091 51.3503C75.5581 52.0562 76.1599 52.6173 76.8964 53.0337C77.633 53.4319 78.4415 53.631 79.3217 53.631C80.0223 53.631 80.705 53.5224 81.3697 53.3052C82.0344 53.088 82.5913 52.7803 83.0404 52.3821L84.28 53.7125C83.5255 54.2736 82.735 54.699 81.9087 54.9886C81.1002 55.2601 80.211 55.3959 79.2409 55.3959ZM74.3095 47.359H83.3369C83.2291 46.5445 82.9596 45.8205 82.5285 45.1869C82.1152 44.5353 81.5943 44.0285 80.9655 43.6664C80.3367 43.2863 79.6451 43.0962 78.8906 43.0962C78.1181 43.0962 77.4084 43.2772 76.7617 43.6393C76.115 44.0013 75.576 44.5081 75.1449 45.1598C74.7137 45.7933 74.4352 46.5264 74.3095 47.359ZM92.5621 55.423C91.448 55.423 90.3971 55.242 89.4093 54.88C88.4392 54.4999 87.5946 53.9749 86.8762 53.3052L88.0889 52.0019C88.7171 52.5812 89.4093 53.0337 90.1638 53.3595C90.9183 53.6673 91.6906 53.8211 92.4813 53.8211C93.5592 53.8211 94.4392 53.5948 95.1221 53.1423C95.8042 52.6898 96.1461 52.1015 96.1461 51.3774C96.1461 50.7801 95.939 50.3185 95.5263 49.9927C95.1306 49.6488 94.5023 49.4135 93.64 49.2868L91.2956 48.961C89.9482 48.7618 88.9419 48.3546 88.2775 47.7391C87.6308 47.1237 87.3074 46.291 87.3074 45.2412C87.3074 44.481 87.523 43.8022 87.9541 43.2048C88.3853 42.6075 88.9781 42.1369 89.7327 41.793C90.5049 41.4491 91.3849 41.2771 92.3735 41.2771C93.3613 41.2771 94.2868 41.4219 95.1491 41.7115C96.0114 42.0011 96.8552 42.4537 97.6821 43.0691L96.6312 44.4267C95.8767 43.9017 95.1398 43.5216 94.4215 43.2863C93.7209 43.0329 93.0017 42.9062 92.2657 42.9062C91.331 42.9062 90.5765 43.1143 90.0021 43.5307C89.427 43.947 89.1398 44.49 89.1398 45.1598C89.1398 45.7752 89.3369 46.2458 89.7327 46.5716C90.1276 46.8794 90.7651 47.0966 91.6459 47.2233L93.9903 47.5491C95.3377 47.7301 96.3432 48.1283 97.0084 48.7438C97.6906 49.3592 98.0324 50.2009 98.0324 51.2688C98.0324 52.0472 97.7899 52.7531 97.3049 53.3867C96.8198 54.0202 96.1638 54.5179 95.3377 54.88C94.5293 55.242 93.6038 55.423 92.5621 55.423ZM104.588 55.423C103.474 55.423 102.423 55.242 101.435 54.88C100.465 54.4999 99.6207 53.9749 98.9023 53.3052L100.115 52.0019C100.744 52.5812 101.435 53.0337 102.19 53.3595C102.944 53.6673 103.717 53.8211 104.507 53.8211C105.585 53.8211 106.465 53.5948 107.148 53.1423C107.831 52.6898 108.172 52.1015 108.172 51.3774C108.172 50.7801 107.966 50.3185 107.552 49.9927C107.158 49.6488 106.528 49.4135 105.666 49.2868L103.322 48.961C101.974 48.7618 100.968 48.3546 100.304 47.7391C99.6569 47.1237 99.3335 46.291 99.3335 45.2412C99.3335 44.481 99.5491 43.8022 99.9802 43.2048C100.411 42.6075 101.004 42.1369 101.759 41.793C102.531 41.4491 103.412 41.2771 104.4 41.2771C105.387 41.2771 106.313 41.4219 107.175 41.7115C108.037 42.0011 108.882 42.4537 109.708 43.0691L108.657 44.4267C107.903 43.9017 107.166 43.5216 106.448 43.2863C105.747 43.0329 105.029 42.9062 104.292 42.9062C103.358 42.9062 102.603 43.1143 102.028 43.5307C101.453 43.947 101.166 44.49 101.166 45.1598C101.166 45.7752 101.364 46.2458 101.759 46.5716C102.154 46.8794 102.792 47.0966 103.672 47.2233L106.016 47.5491C107.364 47.7301 108.37 48.1283 109.035 48.7438C109.718 49.3592 110.059 50.2009 110.059 51.2688C110.059 52.0472 109.816 52.7531 109.331 53.3867C108.846 54.0202 108.19 54.5179 107.364 54.88C106.555 55.242 105.63 55.423 104.588 55.423Z" fill="black"/>
<defs>
<linearGradient id="paint0_linear_232_5273" x1="112.42" y1="23.555" x2="5.6988" y2="54.4924" gradientUnits="userSpaceOnUse">
<stop stop-color="#37819E"/>
<stop offset="1" stop-color="#29A383"/>
</linearGradient>
</defs>
</svg>
