<svg width="42" height="48" viewBox="0 0 42 48" fill="none" xmlns="http://www.w3.org/2000/svg">
<path fill-rule="evenodd" clip-rule="evenodd" d="M19.782 0.175676L0.272605 12.4393C0.272605 12.4393 0.158841 12.5126 0.081567 12.6268C0.00429336 12.741 0 12.8918 0 12.8918V36.3631C0 36.3631 0.0108931 36.5183 0.0709683 36.6196C0.131043 36.7208 0.244834 36.7984 0.244834 36.7984L21.7784 47.9156C21.7784 47.9156 21.9415 48.0061 22.0918 47.9997C22.242 47.9932 22.3794 47.9027 22.3794 47.9027L41.773 35.4688C41.773 35.4688 41.8932 35.3848 41.9533 35.2426C42.0134 35.1004 41.9983 34.9646 41.9983 34.9646V11.3101C41.9983 11.3101 42.0155 11.1162 41.906 10.9438C41.7966 10.7714 41.627 10.7154 41.627 10.7154L20.6839 0.175676C20.6839 0.175676 20.4106 0.00240835 20.211 2.37422e-05C20.0113 -0.00236086 19.782 0.175676 19.782 0.175676ZM14.0382 7.43342L5.20752 10.6399L17.7741 2.73561L14.0382 7.43342ZM6.98266 16.3074L1.79889 13.0513L12.7288 9.08193L6.98266 16.3074ZM19.6641 5.39057V2.12587L16.0194 6.71368L19.6641 5.39057ZM20.7653 5.34531V1.97503L24.7599 6.37536L20.7653 5.34531ZM26.7034 6.87432L22.6198 2.37755L36.6214 9.42887L26.7034 6.87432ZM4.25877 23.6987L1.48122 14.1551L6.44503 17.2706L4.25877 23.6987ZM1.09699 33.0079V16.7728L3.64487 25.5131L1.09699 33.0079ZM5.79351 32.8937L1.5177 35.193L4.17935 27.3491L5.79351 32.8937ZM6.36233 33.8354L2.1316 36.1132L10.8871 37.9729L6.36233 33.8354ZM12.497 39.4404L4.44122 37.7315L18.6359 45.0561L12.497 39.4404ZM40.3171 11.518L28.0569 8.36004L35.1317 16.1479L40.3171 11.518ZM21.5165 41.3539L14.6177 39.8886L21.5165 46.1958V41.3539ZM27.8414 39.73L22.6134 41.3173L22.6177 45.9396L27.8414 39.73ZM37.8041 36.7036L24.8264 45.0194L29.7762 39.1387L37.8041 36.7036ZM39.9378 34.902L31.0813 37.5914L35.2715 32.6112L39.9378 34.902ZM41.7193 34.2433V12.0536L37.7912 23.8431L41.7193 34.2433ZM4.79539 25.5369L7.49037 17.5986L21.6604 40.2549L13.0079 38.4189L6.929 32.8657L4.79539 25.5369ZM26.1154 7.86232L34.5607 17.1585L7.83911 16.9948L14.7079 8.35788L20.2437 6.35166L26.1154 7.86232ZM41.4574 11.9717L37.6388 23.438L35.3592 17.3999C35.3592 17.3999 35.3628 17.4107 35.4408 17.346C35.5188 17.2813 41.4574 11.9717 41.4574 11.9717ZM37.6517 24.2525L41.4961 34.4323C41.4961 34.4323 35.3936 31.4435 35.3592 31.4262C35.3249 31.409 35.2734 31.3982 35.2734 31.3982L37.6517 24.2525ZM34.7143 31.5681C34.6102 31.7048 29.1494 38.1797 29.1494 38.1797L22.4288 40.2204L35.1489 17.6219L37.5016 23.8431L34.9829 31.3982C34.9829 31.3982 34.8183 31.4314 34.7143 31.5681ZM22.0424 40.3454L34.9407 17.4365L7.60729 17.2684L22.0424 40.3454Z" fill="url(#paint0_linear_225_5151)" stroke="black" stroke-width="0.005"/>
<defs>
<linearGradient id="paint0_linear_225_5151" x1="42.9052" y1="20.4005" x2="-0.716369" y2="25.9964" gradientUnits="userSpaceOnUse">
<stop stop-color="#37819E"/>
<stop offset="1" stop-color="#29A383"/>
</linearGradient>
</defs>
</svg>
