<svg width="256" height="125" viewBox="0 0 256 125" fill="none" xmlns="http://www.w3.org/2000/svg">
<path d="M15.2107 124.807C10.2683 124.807 6.49757 123.52 3.89854 120.945C1.29951 118.371 0 113.973 0 107.752C0 102.174 1.29951 97.8832 3.89854 94.8798C6.49757 91.8763 10.247 90.3746 15.1468 90.3746C16.425 90.3746 17.6393 90.469 18.7897 90.6578C19.9401 90.8552 20.9627 91.1255 21.8574 91.4687C22.7521 91.812 23.4679 92.1767 24.0048 92.5628C24.5331 92.949 24.7973 93.3351 24.7973 93.7213C24.7973 94.0645 24.7121 94.4807 24.5416 94.9699C24.3712 95.4676 24.1582 95.8966 23.9025 96.2571C23.6469 96.6261 23.3699 96.8106 23.0717 96.8106C22.7734 96.8106 22.2749 96.6604 21.5762 96.36C20.8689 96.0597 19.9614 95.7593 18.8536 95.459C17.7458 95.1587 16.4037 95.0085 14.8272 95.0085C11.8021 95.0085 9.50989 96.0597 7.95047 98.1621C6.39957 100.265 5.62413 103.418 5.62413 107.623C5.62413 111.956 6.39957 115.132 7.95047 117.148C9.50989 119.165 11.9726 120.173 15.3385 120.173C16.7872 120.173 18.0867 119.98 19.2371 119.594C20.3875 119.208 21.3461 118.821 22.113 118.435C22.88 118.049 23.3913 117.856 23.6469 117.856C23.9451 117.856 24.2136 118.041 24.4522 118.41C24.6822 118.77 24.8825 119.186 25.0529 119.658C25.2234 120.13 25.3086 120.538 25.3086 120.881C25.3086 121.267 25.0018 121.696 24.3883 122.168C23.7662 122.64 22.9652 123.069 21.9852 123.455C21.0053 123.842 19.9188 124.163 18.7258 124.421C17.5328 124.678 16.3611 124.807 15.2107 124.807ZM42.1809 124.807C39.028 124.807 36.544 123.893 34.729 122.065C32.9224 120.246 32.0192 117.749 32.0192 114.574V92.048C32.0192 91.576 32.1981 91.2199 32.556 90.9796C32.9224 90.7479 33.5743 90.632 34.5117 90.632H35.023C35.9603 90.632 36.608 90.7479 36.9659 90.9796C37.3323 91.2199 37.5155 91.576 37.5155 92.048V114.059C37.5155 116.033 38.0353 117.534 39.0749 118.564C40.123 119.594 41.6697 120.109 43.7148 120.109C44.78 120.109 45.8111 119.924 46.8081 119.555C47.8136 119.195 48.751 118.671 49.6201 117.985C50.4978 117.298 51.2349 116.505 51.8314 115.604V92.048C51.8314 91.576 52.0104 91.2199 52.3683 90.9796C52.7347 90.7479 53.3866 90.632 54.3239 90.632H54.8352C55.7726 90.632 56.4202 90.7479 56.7781 90.9796C57.1445 91.2199 57.3277 91.576 57.3277 92.048V114.767C57.3277 116.526 57.3789 117.963 57.4811 119.079C57.5919 120.194 57.6984 121.061 57.8007 121.679C57.9115 122.305 57.9669 122.769 57.9669 123.069C57.9669 123.284 57.839 123.477 57.5834 123.648C57.3277 123.82 57.0082 123.957 56.6247 124.06C56.2413 124.172 55.8365 124.258 55.4104 124.318C54.9844 124.386 54.6009 124.421 54.26 124.421C53.8766 124.421 53.5783 124.279 53.3653 123.996C53.1523 123.721 52.9605 123.249 52.7901 122.58C52.6197 121.919 52.4279 121.053 52.2149 119.98C51.3628 120.967 50.3828 121.825 49.275 122.554C48.1672 123.284 47.0168 123.842 45.8238 124.228C44.6308 124.614 43.4166 124.807 42.1809 124.807ZM71.8354 124.549H71.3241C70.3868 124.549 69.7349 124.421 69.3685 124.163C69.0021 123.906 68.8189 123.563 68.8189 123.134V100.415C68.8189 98.6555 68.7677 97.2182 68.6655 96.1026C68.5547 94.987 68.4482 94.1075 68.3459 93.4639C68.2351 92.8203 68.1798 92.3697 68.1798 92.1123C68.1798 91.8978 68.3076 91.7047 68.5632 91.5331C68.8274 91.3614 69.1469 91.2199 69.5219 91.1083C69.9053 91.0053 70.3101 90.9324 70.7362 90.8895C71.1622 90.8466 71.5457 90.8251 71.8866 90.8251C72.2785 90.8251 72.5811 90.9624 72.7941 91.237C73.0071 91.5202 73.1946 91.9707 73.3565 92.5886C73.5269 93.215 73.7187 94.086 73.9317 95.2016C74.7838 94.1718 75.7255 93.3008 76.7565 92.5886C77.7706 91.8849 78.8528 91.34 80.0032 90.9538C81.1536 90.5677 82.3082 90.3746 83.4671 90.3746C84.9158 90.3746 86.2238 90.5763 87.3913 90.9796C88.5672 91.3915 89.6026 91.9836 90.4973 92.7559C91.3835 93.5282 92.1078 94.5151 92.6703 95.7164C93.5224 94.6009 94.4896 93.6441 95.5718 92.846C96.6625 92.0565 97.8129 91.4473 99.023 91.0182C100.233 90.5891 101.439 90.3746 102.64 90.3746C104.728 90.3746 106.526 90.7908 108.034 91.6232C109.551 92.4641 110.714 93.6569 111.524 95.2016C112.325 96.7462 112.725 98.6126 112.725 100.801V123.134C112.725 123.563 112.546 123.906 112.189 124.163C111.822 124.421 111.174 124.549 110.246 124.549H109.722C108.793 124.549 108.145 124.421 107.779 124.163C107.421 123.906 107.242 123.563 107.242 123.134V101.316C107.242 99.2562 106.726 97.6987 105.695 96.6432C104.681 95.5963 103.147 95.0728 101.094 95.0728C100.378 95.0728 99.6536 95.1801 98.9207 95.3946C98.2049 95.6092 97.5062 95.931 96.8244 96.36C96.1342 96.7891 95.4696 97.304 94.8304 97.9047C94.1913 98.5053 93.6161 99.2133 93.1049 100.029L93.0537 97.8403C93.3008 98.3123 93.4457 98.8057 93.4883 99.3206C93.5309 99.8354 93.5522 100.329 93.5522 100.801V123.134C93.5522 123.563 93.3733 123.906 93.0154 124.163C92.649 124.421 92.0013 124.549 91.0725 124.549H90.5484C89.6196 124.549 88.972 124.421 88.6056 124.163C88.2391 123.906 88.0559 123.563 88.0559 123.134V101.316C88.0559 99.2562 87.5446 97.6987 86.5221 96.6432C85.508 95.5963 83.9742 95.0728 81.9205 95.0728C80.9405 95.0728 79.9819 95.2531 79.0445 95.6135C78.1072 95.9825 77.238 96.4973 76.437 97.1581C75.6189 97.8274 74.9117 98.6126 74.3152 99.5136V123.134C74.3152 123.563 74.1362 123.906 73.7783 124.163C73.4204 124.421 72.7728 124.549 71.8354 124.549ZM131.962 124.807C128.81 124.807 126.33 123.893 124.523 122.065C122.708 120.246 121.801 117.749 121.801 114.574V92.048C121.801 91.576 121.984 91.2199 122.35 90.9796C122.708 90.7479 123.356 90.632 124.293 90.632H124.804C125.742 90.632 126.394 90.7479 126.76 90.9796C127.118 91.2199 127.297 91.576 127.297 92.048V114.059C127.297 116.033 127.821 117.534 128.869 118.564C129.909 119.594 131.451 120.109 133.496 120.109C134.561 120.109 135.597 119.924 136.602 119.555C137.599 119.195 138.537 118.671 139.414 117.985C140.284 117.298 141.016 116.505 141.613 115.604V92.048C141.613 91.576 141.796 91.2199 142.163 90.9796C142.52 90.7479 143.168 90.632 144.105 90.632H144.617C145.554 90.632 146.206 90.7479 146.572 90.9796C146.93 91.2199 147.109 91.576 147.109 92.048V114.767C147.109 116.526 147.165 117.963 147.275 119.079C147.378 120.194 147.484 121.061 147.595 121.679C147.697 122.305 147.748 122.769 147.748 123.069C147.748 123.284 147.621 123.477 147.365 123.648C147.109 123.82 146.79 123.957 146.406 124.06C146.023 124.172 145.618 124.258 145.192 124.318C144.766 124.386 144.382 124.421 144.042 124.421C143.658 124.421 143.36 124.279 143.147 123.996C142.934 123.721 142.742 123.249 142.572 122.58C142.401 121.919 142.209 121.053 141.996 119.98C141.144 120.967 140.164 121.825 139.057 122.554C137.949 123.284 136.798 123.842 135.605 124.228C134.412 124.614 133.198 124.807 131.962 124.807ZM165.771 124.807C164.067 124.807 162.652 124.485 161.527 123.842C160.394 123.198 159.542 122.241 158.971 120.971C158.392 119.71 158.102 118.156 158.102 116.311V77.4383C158.102 76.9664 158.285 76.6103 158.651 76.37C159.009 76.1383 159.657 76.0224 160.594 76.0224H161.106C162.043 76.0224 162.691 76.1383 163.049 76.37C163.415 76.6103 163.598 76.9664 163.598 77.4383V116.311C163.598 117.77 163.824 118.757 164.276 119.272C164.719 119.787 165.494 120.044 166.602 120.044C167.582 120.044 168.285 119.937 168.711 119.723C169.137 119.508 169.499 119.401 169.797 119.401C170.011 119.401 170.194 119.538 170.347 119.813C170.492 120.096 170.598 120.43 170.667 120.817C170.726 121.203 170.769 121.567 170.794 121.911C170.812 122.254 170.82 122.49 170.82 122.619C170.82 123.048 170.535 123.434 169.964 123.777C169.384 124.12 168.702 124.378 167.919 124.549C167.126 124.721 166.41 124.807 165.771 124.807ZM189.929 124.807C185.029 124.807 181.267 123.52 178.643 120.945C176.027 118.371 174.719 113.973 174.719 107.752C174.719 104.019 175.294 100.865 176.444 98.2908C177.595 95.7164 179.286 93.7513 181.519 92.3955C183.76 91.0482 186.478 90.3746 189.674 90.3746C192.571 90.3746 194.987 91.0053 196.921 92.2668C198.864 93.5368 200.313 95.4161 201.267 97.9047C202.23 100.393 202.711 103.44 202.711 107.044C202.711 107.43 202.605 107.837 202.392 108.267C202.179 108.696 201.902 109.06 201.561 109.361C201.22 109.661 200.858 109.811 200.475 109.811H180.343C180.428 113.372 181.259 115.99 182.835 117.663C184.412 119.336 186.819 120.173 190.057 120.173C192.102 120.173 193.836 119.937 195.259 119.465C196.691 118.993 197.82 118.521 198.647 118.049C199.482 117.577 200.006 117.341 200.219 117.341C200.517 117.341 200.781 117.521 201.011 117.882C201.25 118.251 201.455 118.671 201.625 119.143C201.795 119.615 201.881 120.023 201.881 120.366C201.881 120.752 201.57 121.19 200.947 121.679C200.334 122.177 199.482 122.67 198.391 123.159C197.309 123.657 196.043 124.056 194.595 124.356C193.146 124.657 191.591 124.807 189.929 124.807ZM180.343 105.177H197.215C197.215 101.788 196.512 99.2433 195.106 97.5443C193.7 95.8537 191.697 95.0085 189.098 95.0085C187.224 95.0085 185.647 95.4247 184.369 96.2571C183.091 97.098 182.111 98.2694 181.429 99.7711C180.747 101.273 180.385 103.075 180.343 105.177ZM218.293 125C216.844 125 215.502 124.863 214.266 124.588C213.039 124.305 211.966 123.949 211.045 123.52C210.125 123.091 209.414 122.649 208.911 122.194C208.391 121.748 208.131 121.332 208.131 120.945C208.131 120.688 208.259 120.302 208.515 119.787C208.779 119.272 209.077 118.8 209.409 118.371C209.75 117.942 210.07 117.727 210.368 117.727C210.538 117.727 210.922 117.942 211.518 118.371C212.123 118.8 212.967 119.229 214.049 119.658C215.131 120.087 216.418 120.302 217.909 120.302C219.954 120.302 221.51 119.894 222.575 119.079C223.64 118.264 224.173 117.084 224.173 115.539C224.173 114.381 223.896 113.445 223.342 112.733C222.788 112.029 222.034 111.442 221.079 110.97C220.116 110.498 219.017 110.069 217.782 109.682C216.674 109.296 215.587 108.867 214.522 108.395C213.457 107.923 212.498 107.323 211.646 106.593C210.794 105.864 210.125 104.941 209.639 103.826C209.154 102.71 208.911 101.316 208.911 99.6424C208.911 97.8403 209.367 96.2313 210.278 94.8154C211.19 93.3995 212.447 92.2925 214.049 91.4945C215.643 90.705 217.462 90.3102 219.507 90.3102C220.615 90.3102 221.672 90.3832 222.677 90.5291C223.674 90.6835 224.569 90.8895 225.361 91.1469C226.145 91.4044 226.772 91.7047 227.24 92.048C227.709 92.3912 227.943 92.7344 227.943 93.0777C227.943 93.4209 227.828 93.8715 227.598 94.4293C227.36 94.987 227.095 95.4805 226.806 95.9095C226.499 96.3386 226.196 96.5531 225.898 96.5531C225.728 96.5531 225.153 96.2742 224.173 95.7164C223.193 95.1587 221.833 94.8798 220.095 94.8798C218.51 94.8798 217.164 95.253 216.056 95.9996C214.948 96.7548 214.394 97.8189 214.394 99.1919C214.394 100.007 214.543 100.694 214.842 101.251C215.148 101.809 215.66 102.315 216.375 102.77C217.1 103.216 218.101 103.654 219.379 104.083C220.828 104.555 222.17 105.091 223.406 105.692C224.641 106.293 225.728 107.009 226.665 107.842C227.611 108.683 228.335 109.682 228.838 110.841C229.349 111.999 229.605 113.372 229.605 114.96C229.605 116.891 229.106 118.607 228.109 120.109C227.104 121.61 225.749 122.799 224.045 123.674C222.34 124.558 220.423 125 218.293 125ZM244.688 125C243.239 125 241.897 124.863 240.661 124.588C239.426 124.305 238.352 123.949 237.44 123.52C236.52 123.091 235.804 122.649 235.293 122.194C234.782 121.748 234.526 121.332 234.526 120.945C234.526 120.688 234.654 120.302 234.91 119.787C235.165 119.272 235.463 118.8 235.804 118.371C236.145 117.942 236.465 117.727 236.763 117.727C236.933 117.727 237.317 117.942 237.913 118.371C238.51 118.8 239.353 119.229 240.444 119.658C241.526 120.087 242.813 120.302 244.304 120.302C246.35 120.302 247.905 119.894 248.97 119.079C250.035 118.264 250.568 117.084 250.568 115.539C250.568 114.381 250.291 113.445 249.737 112.733C249.183 112.029 248.429 111.442 247.474 110.97C246.511 110.498 245.412 110.069 244.177 109.682C243.069 109.296 241.982 108.867 240.917 108.395C239.852 107.923 238.893 107.323 238.041 106.593C237.189 105.864 236.52 104.941 236.034 103.826C235.54 102.71 235.293 101.316 235.293 99.6424C235.293 97.8403 235.753 96.2313 236.673 94.8154C237.585 93.3995 238.842 92.2925 240.444 91.4945C242.038 90.705 243.857 90.3102 245.902 90.3102C247.01 90.3102 248.067 90.3832 249.072 90.5291C250.069 90.6835 250.964 90.8895 251.756 91.1469C252.54 91.4044 253.167 91.7047 253.635 92.048C254.104 92.3912 254.338 92.7344 254.338 93.0777C254.338 93.4209 254.223 93.8715 253.993 94.4293C253.755 94.987 253.486 95.4805 253.188 95.9095C252.89 96.3386 252.591 96.5531 252.293 96.5531C252.123 96.5531 251.548 96.2742 250.568 95.7164C249.588 95.1587 248.224 94.8798 246.477 94.8798C244.901 94.8798 243.559 95.253 242.451 95.9996C241.343 96.7548 240.789 97.8189 240.789 99.1919C240.789 100.007 240.938 100.694 241.237 101.251C241.535 101.809 242.046 102.315 242.771 102.77C243.495 103.216 244.496 103.654 245.774 104.083C247.223 104.555 248.565 105.091 249.801 105.692C251.036 106.293 252.123 107.009 253.06 107.842C253.997 108.683 254.722 109.682 255.233 110.841C255.744 111.999 256 113.372 256 114.96C256 116.891 255.502 118.607 254.505 120.109C253.499 121.61 252.144 122.799 250.44 123.674C248.736 124.558 246.818 125 244.688 125Z" fill="#1C2024"/>
<path fill-rule="evenodd" clip-rule="evenodd" d="M125.283 0.238009L99.0357 16.853C99.0357 16.853 98.8826 16.9523 98.7787 17.107C98.6747 17.2618 98.6689 17.4661 98.6689 17.4661V49.2656C98.6689 49.2656 98.6836 49.4758 98.7644 49.6131C98.8452 49.7503 98.9983 49.8554 98.9983 49.8554L127.969 64.9172C127.969 64.9172 128.188 65.0398 128.391 65.0311C128.593 65.0223 128.778 64.8997 128.778 64.8997L154.869 48.054C154.869 48.054 155.031 47.9402 155.112 47.7475C155.193 47.5548 155.172 47.3709 155.172 47.3709V15.3232C155.172 15.3232 155.195 15.0605 155.048 14.8269C154.901 14.5933 154.673 14.5174 154.673 14.5174L126.496 0.238009C126.496 0.238009 126.129 0.00326288 125.86 3.21666e-05C125.592 -0.00319855 125.283 0.238009 125.283 0.238009ZM117.555 10.071L105.675 14.4152L122.582 3.70627L117.555 10.071ZM108.063 22.0936L101.089 17.6822L115.794 12.3044L108.063 22.0936ZM125.124 7.30327V2.88018L120.221 9.09586L125.124 7.30327ZM126.606 7.24196V2.67582L131.98 8.63749L126.606 7.24196ZM134.595 9.31349L129.101 3.22115L147.938 12.7745L134.595 9.31349ZM104.399 32.1076L100.662 19.1777L107.34 23.3986L104.399 32.1076ZM100.145 44.7199V22.7242L103.573 34.5658L100.145 44.7199ZM106.463 44.5652L100.711 47.6803L104.292 37.0533L106.463 44.5652ZM107.229 45.841L101.537 48.927L113.316 51.4465L107.229 45.841ZM115.482 53.4347L104.644 51.1195L123.741 61.043L115.482 53.4347ZM152.91 15.6049L136.416 11.3264L145.934 21.8775L152.91 15.6049ZM127.617 56.0273L118.335 54.042L127.617 62.5872V56.0273ZM136.126 53.8271L129.092 55.9776L129.098 62.24L136.126 53.8271ZM149.53 49.7269L132.07 60.9934L138.729 53.026L149.53 49.7269ZM152.4 47.2861L140.485 50.9298L146.122 44.1824L152.4 47.2861ZM154.797 46.3936V16.3304L149.512 32.3032L154.797 46.3936ZM105.121 34.5979L108.746 23.843L127.81 54.5383L116.169 52.0509L107.991 44.5272L105.121 34.5979ZM133.804 10.6521L145.166 23.2468L109.215 23.0249L118.456 11.3235L125.904 8.60538L133.804 10.6521ZM154.445 16.2195L149.307 31.7543L146.24 23.5738C146.24 23.5738 146.245 23.5884 146.35 23.5008C146.455 23.4132 154.445 16.2195 154.445 16.2195ZM149.324 32.8579L154.497 46.6497C154.497 46.6497 146.286 42.6004 146.24 42.577C146.194 42.5536 146.125 42.539 146.125 42.539L149.324 32.8579ZM145.373 42.7692C145.233 42.9544 137.886 51.7268 137.886 51.7268L128.844 54.4916L145.957 23.8745L149.122 32.3032L145.734 42.539C145.734 42.539 145.513 42.584 145.373 42.7692ZM128.324 54.6609L145.677 23.6234L108.904 23.3957L128.324 54.6609Z" fill="url(#paint0_linear_229_5464)"/>
<path d="M15.2107 124.807C10.2683 124.807 6.49757 123.52 3.89854 120.945C1.29951 118.371 0 113.973 0 107.752C0 102.174 1.29951 97.8832 3.89854 94.8798C6.49757 91.8763 10.247 90.3746 15.1468 90.3746C16.425 90.3746 17.6393 90.469 18.7897 90.6578C19.9401 90.8552 20.9627 91.1255 21.8574 91.4687C22.7521 91.812 23.4679 92.1767 24.0048 92.5628C24.5331 92.949 24.7973 93.3351 24.7973 93.7213C24.7973 94.0645 24.7121 94.4807 24.5416 94.9699C24.3712 95.4676 24.1582 95.8966 23.9025 96.2571C23.6469 96.6261 23.3699 96.8106 23.0717 96.8106C22.7734 96.8106 22.2749 96.6604 21.5762 96.36C20.8689 96.0597 19.9614 95.7593 18.8536 95.459C17.7458 95.1587 16.4037 95.0085 14.8272 95.0085C11.8021 95.0085 9.50989 96.0597 7.95047 98.1621C6.39957 100.265 5.62413 103.418 5.62413 107.623C5.62413 111.956 6.39957 115.132 7.95047 117.148C9.50989 119.165 11.9726 120.173 15.3385 120.173C16.7872 120.173 18.0867 119.98 19.2371 119.594C20.3875 119.208 21.3461 118.821 22.113 118.435C22.88 118.049 23.3913 117.856 23.6469 117.856C23.9451 117.856 24.2136 118.041 24.4522 118.41C24.6822 118.77 24.8825 119.186 25.0529 119.658C25.2234 120.13 25.3086 120.538 25.3086 120.881C25.3086 121.267 25.0018 121.696 24.3883 122.168C23.7662 122.64 22.9652 123.069 21.9852 123.455C21.0053 123.842 19.9188 124.163 18.7258 124.421C17.5328 124.678 16.3611 124.807 15.2107 124.807ZM42.1809 124.807C39.028 124.807 36.544 123.893 34.729 122.065C32.9224 120.246 32.0192 117.749 32.0192 114.574V92.048C32.0192 91.576 32.1981 91.2199 32.556 90.9796C32.9224 90.7479 33.5743 90.632 34.5117 90.632H35.023C35.9603 90.632 36.608 90.7479 36.9659 90.9796C37.3323 91.2199 37.5155 91.576 37.5155 92.048V114.059C37.5155 116.033 38.0353 117.534 39.0749 118.564C40.123 119.594 41.6697 120.109 43.7148 120.109C44.78 120.109 45.8111 119.924 46.8081 119.555C47.8136 119.195 48.751 118.671 49.6201 117.985C50.4978 117.298 51.2349 116.505 51.8314 115.604V92.048C51.8314 91.576 52.0104 91.2199 52.3683 90.9796C52.7347 90.7479 53.3866 90.632 54.3239 90.632H54.8352C55.7726 90.632 56.4202 90.7479 56.7781 90.9796C57.1445 91.2199 57.3277 91.576 57.3277 92.048V114.767C57.3277 116.526 57.3789 117.963 57.4811 119.079C57.5919 120.194 57.6984 121.061 57.8007 121.679C57.9115 122.305 57.9669 122.769 57.9669 123.069C57.9669 123.284 57.839 123.477 57.5834 123.648C57.3277 123.82 57.0082 123.957 56.6247 124.06C56.2413 124.172 55.8365 124.258 55.4104 124.318C54.9844 124.386 54.6009 124.421 54.26 124.421C53.8766 124.421 53.5783 124.279 53.3653 123.996C53.1523 123.721 52.9605 123.249 52.7901 122.58C52.6197 121.919 52.4279 121.053 52.2149 119.98C51.3628 120.967 50.3828 121.825 49.275 122.554C48.1672 123.284 47.0168 123.842 45.8238 124.228C44.6308 124.614 43.4166 124.807 42.1809 124.807ZM71.8354 124.549H71.3241C70.3868 124.549 69.7349 124.421 69.3685 124.163C69.0021 123.906 68.8189 123.563 68.8189 123.134V100.415C68.8189 98.6555 68.7677 97.2182 68.6655 96.1026C68.5547 94.987 68.4482 94.1075 68.3459 93.4639C68.2351 92.8203 68.1798 92.3697 68.1798 92.1123C68.1798 91.8978 68.3076 91.7047 68.5632 91.5331C68.8274 91.3614 69.1469 91.2199 69.5219 91.1083C69.9053 91.0053 70.3101 90.9324 70.7362 90.8895C71.1622 90.8466 71.5457 90.8251 71.8866 90.8251C72.2785 90.8251 72.5811 90.9624 72.7941 91.237C73.0071 91.5202 73.1946 91.9707 73.3565 92.5886C73.5269 93.215 73.7187 94.086 73.9317 95.2016C74.7838 94.1718 75.7255 93.3008 76.7565 92.5886C77.7706 91.8849 78.8528 91.34 80.0032 90.9538C81.1536 90.5677 82.3082 90.3746 83.4671 90.3746C84.9158 90.3746 86.2238 90.5763 87.3913 90.9796C88.5672 91.3915 89.6026 91.9836 90.4973 92.7559C91.3835 93.5282 92.1078 94.5151 92.6703 95.7164C93.5224 94.6009 94.4896 93.6441 95.5718 92.846C96.6625 92.0565 97.8129 91.4473 99.023 91.0182C100.233 90.5891 101.439 90.3746 102.64 90.3746C104.728 90.3746 106.526 90.7908 108.034 91.6232C109.551 92.4641 110.714 93.6569 111.524 95.2016C112.325 96.7462 112.725 98.6126 112.725 100.801V123.134C112.725 123.563 112.546 123.906 112.189 124.163C111.822 124.421 111.174 124.549 110.246 124.549H109.722C108.793 124.549 108.145 124.421 107.779 124.163C107.421 123.906 107.242 123.563 107.242 123.134V101.316C107.242 99.2562 106.726 97.6987 105.695 96.6432C104.681 95.5963 103.147 95.0728 101.094 95.0728C100.378 95.0728 99.6536 95.1801 98.9207 95.3946C98.2049 95.6092 97.5062 95.931 96.8244 96.36C96.1342 96.7891 95.4696 97.304 94.8304 97.9047C94.1913 98.5053 93.6161 99.2133 93.1049 100.029L93.0537 97.8403C93.3008 98.3123 93.4457 98.8057 93.4883 99.3206C93.5309 99.8354 93.5522 100.329 93.5522 100.801V123.134C93.5522 123.563 93.3733 123.906 93.0154 124.163C92.649 124.421 92.0013 124.549 91.0725 124.549H90.5484C89.6196 124.549 88.972 124.421 88.6056 124.163C88.2391 123.906 88.0559 123.563 88.0559 123.134V101.316C88.0559 99.2562 87.5446 97.6987 86.5221 96.6432C85.508 95.5963 83.9742 95.0728 81.9205 95.0728C80.9405 95.0728 79.9819 95.2531 79.0445 95.6135C78.1072 95.9825 77.238 96.4973 76.437 97.1581C75.6189 97.8274 74.9117 98.6126 74.3152 99.5136V123.134C74.3152 123.563 74.1362 123.906 73.7783 124.163C73.4204 124.421 72.7728 124.549 71.8354 124.549ZM131.962 124.807C128.81 124.807 126.33 123.893 124.523 122.065C122.708 120.246 121.801 117.749 121.801 114.574V92.048C121.801 91.576 121.984 91.2199 122.35 90.9796C122.708 90.7479 123.356 90.632 124.293 90.632H124.804C125.742 90.632 126.394 90.7479 126.76 90.9796C127.118 91.2199 127.297 91.576 127.297 92.048V114.059C127.297 116.033 127.821 117.534 128.869 118.564C129.909 119.594 131.451 120.109 133.496 120.109C134.561 120.109 135.597 119.924 136.602 119.555C137.599 119.195 138.537 118.671 139.414 117.985C140.284 117.298 141.016 116.505 141.613 115.604V92.048C141.613 91.576 141.796 91.2199 142.163 90.9796C142.52 90.7479 143.168 90.632 144.105 90.632H144.617C145.554 90.632 146.206 90.7479 146.572 90.9796C146.93 91.2199 147.109 91.576 147.109 92.048V114.767C147.109 116.526 147.165 117.963 147.275 119.079C147.378 120.194 147.484 121.061 147.595 121.679C147.697 122.305 147.748 122.769 147.748 123.069C147.748 123.284 147.621 123.477 147.365 123.648C147.109 123.82 146.79 123.957 146.406 124.06C146.023 124.172 145.618 124.258 145.192 124.318C144.766 124.386 144.382 124.421 144.042 124.421C143.658 124.421 143.36 124.279 143.147 123.996C142.934 123.721 142.742 123.249 142.572 122.58C142.401 121.919 142.209 121.053 141.996 119.98C141.144 120.967 140.164 121.825 139.057 122.554C137.949 123.284 136.798 123.842 135.605 124.228C134.412 124.614 133.198 124.807 131.962 124.807ZM165.771 124.807C164.067 124.807 162.652 124.485 161.527 123.842C160.394 123.198 159.542 122.241 158.971 120.971C158.392 119.71 158.102 118.156 158.102 116.311V77.4383C158.102 76.9664 158.285 76.6103 158.651 76.37C159.009 76.1383 159.657 76.0224 160.594 76.0224H161.106C162.043 76.0224 162.691 76.1383 163.049 76.37C163.415 76.6103 163.598 76.9664 163.598 77.4383V116.311C163.598 117.77 163.824 118.757 164.276 119.272C164.719 119.787 165.494 120.044 166.602 120.044C167.582 120.044 168.285 119.937 168.711 119.723C169.137 119.508 169.499 119.401 169.797 119.401C170.011 119.401 170.194 119.538 170.347 119.813C170.492 120.096 170.598 120.43 170.667 120.817C170.726 121.203 170.769 121.567 170.794 121.911C170.812 122.254 170.82 122.49 170.82 122.619C170.82 123.048 170.535 123.434 169.964 123.777C169.384 124.12 168.702 124.378 167.919 124.549C167.126 124.721 166.41 124.807 165.771 124.807ZM189.929 124.807C185.029 124.807 181.267 123.52 178.643 120.945C176.027 118.371 174.719 113.973 174.719 107.752C174.719 104.019 175.294 100.865 176.444 98.2908C177.595 95.7164 179.286 93.7513 181.519 92.3955C183.76 91.0482 186.478 90.3746 189.674 90.3746C192.571 90.3746 194.987 91.0053 196.921 92.2668C198.864 93.5368 200.313 95.4161 201.267 97.9047C202.23 100.393 202.711 103.44 202.711 107.044C202.711 107.43 202.605 107.837 202.392 108.267C202.179 108.696 201.902 109.06 201.561 109.361C201.22 109.661 200.858 109.811 200.475 109.811H180.343C180.428 113.372 181.259 115.99 182.835 117.663C184.412 119.336 186.819 120.173 190.057 120.173C192.102 120.173 193.836 119.937 195.259 119.465C196.691 118.993 197.82 118.521 198.647 118.049C199.482 117.577 200.006 117.341 200.219 117.341C200.517 117.341 200.781 117.521 201.011 117.882C201.25 118.251 201.455 118.671 201.625 119.143C201.795 119.615 201.881 120.023 201.881 120.366C201.881 120.752 201.57 121.19 200.947 121.679C200.334 122.177 199.482 122.67 198.391 123.159C197.309 123.657 196.043 124.056 194.595 124.356C193.146 124.657 191.591 124.807 189.929 124.807ZM180.343 105.177H197.215C197.215 101.788 196.512 99.2433 195.106 97.5443C193.7 95.8537 191.697 95.0085 189.098 95.0085C187.224 95.0085 185.647 95.4247 184.369 96.2571C183.091 97.098 182.111 98.2694 181.429 99.7711C180.747 101.273 180.385 103.075 180.343 105.177ZM218.293 125C216.844 125 215.502 124.863 214.266 124.588C213.039 124.305 211.966 123.949 211.045 123.52C210.125 123.091 209.414 122.649 208.911 122.194C208.391 121.748 208.131 121.332 208.131 120.945C208.131 120.688 208.259 120.302 208.515 119.787C208.779 119.272 209.077 118.8 209.409 118.371C209.75 117.942 210.07 117.727 210.368 117.727C210.538 117.727 210.922 117.942 211.518 118.371C212.123 118.8 212.967 119.229 214.049 119.658C215.131 120.087 216.418 120.302 217.909 120.302C219.954 120.302 221.51 119.894 222.575 119.079C223.64 118.264 224.173 117.084 224.173 115.539C224.173 114.381 223.896 113.445 223.342 112.733C222.788 112.029 222.034 111.442 221.079 110.97C220.116 110.498 219.017 110.069 217.782 109.682C216.674 109.296 215.587 108.867 214.522 108.395C213.457 107.923 212.498 107.323 211.646 106.593C210.794 105.864 210.125 104.941 209.639 103.826C209.154 102.71 208.911 101.316 208.911 99.6424C208.911 97.8403 209.367 96.2313 210.278 94.8154C211.19 93.3995 212.447 92.2925 214.049 91.4945C215.643 90.705 217.462 90.3102 219.507 90.3102C220.615 90.3102 221.672 90.3832 222.677 90.5291C223.674 90.6835 224.569 90.8895 225.361 91.1469C226.145 91.4044 226.772 91.7047 227.24 92.048C227.709 92.3912 227.943 92.7344 227.943 93.0777C227.943 93.4209 227.828 93.8715 227.598 94.4293C227.36 94.987 227.095 95.4805 226.806 95.9095C226.499 96.3386 226.196 96.5531 225.898 96.5531C225.728 96.5531 225.153 96.2742 224.173 95.7164C223.193 95.1587 221.833 94.8798 220.095 94.8798C218.51 94.8798 217.164 95.253 216.056 95.9996C214.948 96.7548 214.394 97.8189 214.394 99.1919C214.394 100.007 214.543 100.694 214.842 101.251C215.148 101.809 215.66 102.315 216.375 102.77C217.1 103.216 218.101 103.654 219.379 104.083C220.828 104.555 222.17 105.091 223.406 105.692C224.641 106.293 225.728 107.009 226.665 107.842C227.611 108.683 228.335 109.682 228.838 110.841C229.349 111.999 229.605 113.372 229.605 114.96C229.605 116.891 229.106 118.607 228.109 120.109C227.104 121.61 225.749 122.799 224.045 123.674C222.34 124.558 220.423 125 218.293 125ZM244.688 125C243.239 125 241.897 124.863 240.661 124.588C239.426 124.305 238.352 123.949 237.44 123.52C236.52 123.091 235.804 122.649 235.293 122.194C234.782 121.748 234.526 121.332 234.526 120.945C234.526 120.688 234.654 120.302 234.91 119.787C235.165 119.272 235.463 118.8 235.804 118.371C236.145 117.942 236.465 117.727 236.763 117.727C236.933 117.727 237.317 117.942 237.913 118.371C238.51 118.8 239.353 119.229 240.444 119.658C241.526 120.087 242.813 120.302 244.304 120.302C246.35 120.302 247.905 119.894 248.97 119.079C250.035 118.264 250.568 117.084 250.568 115.539C250.568 114.381 250.291 113.445 249.737 112.733C249.183 112.029 248.429 111.442 247.474 110.97C246.511 110.498 245.412 110.069 244.177 109.682C243.069 109.296 241.982 108.867 240.917 108.395C239.852 107.923 238.893 107.323 238.041 106.593C237.189 105.864 236.52 104.941 236.034 103.826C235.54 102.71 235.293 101.316 235.293 99.6424C235.293 97.8403 235.753 96.2313 236.673 94.8154C237.585 93.3995 238.842 92.2925 240.444 91.4945C242.038 90.705 243.857 90.3102 245.902 90.3102C247.01 90.3102 248.067 90.3832 249.072 90.5291C250.069 90.6835 250.964 90.8895 251.756 91.1469C252.54 91.4044 253.167 91.7047 253.635 92.048C254.104 92.3912 254.338 92.7344 254.338 93.0777C254.338 93.4209 254.223 93.8715 253.993 94.4293C253.755 94.987 253.486 95.4805 253.188 95.9095C252.89 96.3386 252.591 96.5531 252.293 96.5531C252.123 96.5531 251.548 96.2742 250.568 95.7164C249.588 95.1587 248.224 94.8798 246.477 94.8798C244.901 94.8798 243.559 95.253 242.451 95.9996C241.343 96.7548 240.789 97.8189 240.789 99.1919C240.789 100.007 240.938 100.694 241.237 101.251C241.535 101.809 242.046 102.315 242.771 102.77C243.495 103.216 244.496 103.654 245.774 104.083C247.223 104.555 248.565 105.091 249.801 105.692C251.036 106.293 252.123 107.009 253.06 107.842C253.997 108.683 254.722 109.682 255.233 110.841C255.744 111.999 256 113.372 256 114.96C256 116.891 255.502 118.607 254.505 120.109C253.499 121.61 252.144 122.799 250.44 123.674C248.736 124.558 246.818 125 244.688 125Z" stroke="black" stroke-width="0.005"/>
<path fill-rule="evenodd" clip-rule="evenodd" d="M125.283 0.238009L99.0357 16.853C99.0357 16.853 98.8826 16.9523 98.7787 17.107C98.6747 17.2618 98.6689 17.4661 98.6689 17.4661V49.2656C98.6689 49.2656 98.6836 49.4758 98.7644 49.6131C98.8452 49.7503 98.9983 49.8554 98.9983 49.8554L127.969 64.9172C127.969 64.9172 128.188 65.0398 128.391 65.0311C128.593 65.0223 128.778 64.8997 128.778 64.8997L154.869 48.054C154.869 48.054 155.031 47.9402 155.112 47.7475C155.193 47.5548 155.172 47.3709 155.172 47.3709V15.3232C155.172 15.3232 155.195 15.0605 155.048 14.8269C154.901 14.5933 154.673 14.5174 154.673 14.5174L126.496 0.238009C126.496 0.238009 126.129 0.00326288 125.86 3.21666e-05C125.592 -0.00319855 125.283 0.238009 125.283 0.238009ZM117.555 10.071L105.675 14.4152L122.582 3.70627L117.555 10.071ZM108.063 22.0936L101.089 17.6822L115.794 12.3044L108.063 22.0936ZM125.124 7.30327V2.88018L120.221 9.09586L125.124 7.30327ZM126.606 7.24196V2.67582L131.98 8.63749L126.606 7.24196ZM134.595 9.31349L129.101 3.22115L147.938 12.7745L134.595 9.31349ZM104.399 32.1076L100.662 19.1777L107.34 23.3986L104.399 32.1076ZM100.145 44.7199V22.7242L103.573 34.5658L100.145 44.7199ZM106.463 44.5652L100.711 47.6803L104.292 37.0533L106.463 44.5652ZM107.229 45.841L101.537 48.927L113.316 51.4465L107.229 45.841ZM115.482 53.4347L104.644 51.1195L123.741 61.043L115.482 53.4347ZM152.91 15.6049L136.416 11.3264L145.934 21.8775L152.91 15.6049ZM127.617 56.0273L118.335 54.042L127.617 62.5872V56.0273ZM136.126 53.8271L129.092 55.9776L129.098 62.24L136.126 53.8271ZM149.53 49.7269L132.07 60.9934L138.729 53.026L149.53 49.7269ZM152.4 47.2861L140.485 50.9298L146.122 44.1824L152.4 47.2861ZM154.797 46.3936V16.3304L149.512 32.3032L154.797 46.3936ZM105.121 34.5979L108.746 23.843L127.81 54.5383L116.169 52.0509L107.991 44.5272L105.121 34.5979ZM133.804 10.6521L145.166 23.2468L109.215 23.0249L118.456 11.3235L125.904 8.60538L133.804 10.6521ZM154.445 16.2195L149.307 31.7543L146.24 23.5738C146.24 23.5738 146.245 23.5884 146.35 23.5008C146.455 23.4132 154.445 16.2195 154.445 16.2195ZM149.324 32.8579L154.497 46.6497C154.497 46.6497 146.286 42.6004 146.24 42.577C146.194 42.5536 146.125 42.539 146.125 42.539L149.324 32.8579ZM145.373 42.7692C145.233 42.9544 137.886 51.7268 137.886 51.7268L128.844 54.4916L145.957 23.8745L149.122 32.3032L145.734 42.539C145.734 42.539 145.513 42.584 145.373 42.7692ZM128.324 54.6609L145.677 23.6234L108.904 23.3957L128.324 54.6609Z" stroke="black" stroke-width="0.005"/>
<defs>
<linearGradient id="paint0_linear_229_5464" x1="156.392" y1="27.639" x2="97.692" y2="35.1168" gradientUnits="userSpaceOnUse">
<stop stop-color="#37819E"/>
<stop offset="1" stop-color="#29A383"/>
</linearGradient>
</defs>
</svg>
